#!OML:ASF E:\motion texture\Top Level 1\Subject 1\Session 1\male.ASF
:FULLY-SPECIFIED
:DEGREES
353
root -19.6078 17.6055 4.19336 721.654 -82.4954 -716.015
lowerback -2.25033 -4.01344 -2.65063
upperback -3.04321 -5.35442 3.00128
thorax -1.3455 -2.63135 4.4958
lowerneck -16.7086 -4.21721 -6.36868
upperneck 14.448 -5.51864 7.06716
head 7.57175 -2.35382 2.73199
rclavicle 3.21037e-014 1.35174e-014
rhumerus -41.4939 -7.46158 -79.1489
rradius 43.6751
rwrist 1.6847
rhand -14.0373 -11.1273
rfingers 7.12502
rthumb 12.0931 -40.7578
lclavicle 3.21037e-014 1.35174e-014
lhumerus -25.6632 -11.2788 98.8025
lradius 42.1786
lwrist -7.85126
lhand -12.461 10.9717
lfingers 7.12502
lthumb 13.6128 40.5066
rfemur -41.7964 -6.63776 20.9045
rtibia 41.313
rfoot 369.317 -7.83143
rtoes 11.547
lfemur 11.8926 -8.12273 -19.883
ltibia 21.9859
lfoot 539.885 165.155
ltoes -20.7824
354
root -19.8305 17.5816 4.1729 726.186 -82.8731 -720.329
lowerback -2.75317 -3.65026 -2.10901
upperback -3.25636 -4.87726 3.16208
thorax -1.36018 -2.40193 4.34634
lowerneck -16.7137 -4.17305 -6.3379
upperneck 14.8454 -5.44866 6.83816
head 7.69029 -2.33818 2.6607
rclavicle -1.6027e-014 -6.36111e-015
rhumerus -40.1813 -6.8868 -80.2581
rradius 44.1754
rwrist 1.20912
rhand -14.2178 -11.3224
rfingers 7.12502
rthumb 11.9191 -40.9631
lclavicle -1.6027e-014 -6.36111e-015
lhumerus -26.7619 -9.94922 98.5122
lradius 40.0524
lwrist -9.48721
lhand -12.3737 10.7858
lfingers 7.12502
lthumb 13.6968 40.3151
rfemur -39.9418 -6.32329 21.8508
rtibia 39.8089
rfoot 365.871 -6.62761
rtoes 13.9431
lfemur 10.9324 -7.81267 -18.84
ltibia 23.932
lfoot 542.524 164.91
ltoes -20.0076
355
root -20.0438 17.5628 4.15393 731.973 -83.3499 -725.98
lowerback -3.0822 -3.22293 -1.44472
upperback -3.44331 -4.32274 3.32272
thorax -1.45418 -2.13584 4.14366
lowerneck -16.7954 -4.12464 -6.2667
upperneck 15.26 -5.3724 6.58027
head 7.82616 -2.3189 2.57294
rclavicle 1.98536e-014 -7.95139e-015
rhumerus -38.7818 -6.23987 -81.3692
rradius 44.6686
rwrist 0.677797
rhand -14.4204 -11.4619
rfingers 7.12502
rthumb 11.7237 -41.1139
lclavicle 1.98536e-014 -7.95139e-015
lhumerus -27.8142 -8.40811 97.9966
lradius 37.9389
lwrist -11.3968
lhand -12.2896 10.5434
lfingers 7.12502
lthumb 13.7779 40.0672
rfemur -38.3154 -5.87301 22.8997
rtibia 38.4068
rfoot 363.308 -5.88002
rtoes 16.6529
lfemur 9.73146 -7.34156 -17.6721
ltibia 26.2181
lfoot 545.848 164.896
ltoes -18.5342
356
root -20.2461 17.5488 4.13632 739.313 -83.8693 -733.278
lowerback -3.22166 -2.74293 -0.686472
upperback -3.59021 -3.70201 3.47636
thorax -1.61485 -1.83912 3.89277
lowerneck -16.9381 -4.07062 -6.15488
upperneck 15.6444 -5.28796 6.30547
head 7.9614 -2.29436 2.47287
rclavicle 1.68967e-014 -5.00937e-014
rhumerus -37.2851 -5.51691 -82.4769
rradius 45.1662
rwrist 0.120453
rhand -14.594 -11.5832
rfingers 7.12502
rthumb 11.5563 -41.2446
lclavicle 1.68967e-014 -5.00937e-014
lhumerus -28.8257 -6.64563 97.2259
lradius 35.8832
lwrist -13.5605
lhand -12.209 10.259
lfingers 7.12502
lthumb 13.8556 39.7775
rfemur -36.8996 -5.33615 24.034
rtibia 37.2262
rfoot 361.414 -5.43114
rtoes 19.0997
lfemur 8.29412 -6.70642 -16.4128
ltibia 28.859
lfoot 549.741 165.1
ltoes -16.3199
357
root -20.4373 17.5389 4.11987 748.381 -84.3599 -742.409
lowerback -3.17544 -2.22407 0.125709
upperback -3.67585 -3.02784 3.61282
thorax -1.81108 -1.51822 3.59972
lowerneck -17.1266 -4.01831 -5.99906
upperneck 15.9467 -5.2048 6.0176
head 8.0768 -2.26868 2.36006
rclavicle -8.05078e-015 4.77083e-015
rhumerus -35.6764 -4.73172 -83.5668
rradius 45.6728
rwrist -0.388747
rhand -14.7474 -11.6901
rfingers 7.12502
rthumb 11.4084 -41.3598
lclavicle -8.05078e-015 4.77083e-015
lhumerus -29.7894 -4.67052 96.1811
lradius 33.9248
lwrist -15.9134
lhand -12.1447 9.94281
lfingers 7.12502
lthumb 13.9176 39.4571
rfemur -35.6436 -4.74143 25.2031
rtibia 36.3417
rfoot 359.993 -5.12446
rtoes 20.9877
lfemur 6.65262 -5.95182 -15.1314
ltibia 31.8601
lfoot 553.918 165.398
ltoes -13.7319
358
root -20.6179 17.5321 4.1045 758.973 -84.7315 -753.16
lowerback -2.96462 -1.69775 0.949003
upperback -3.70011 -2.33707 3.73104
thorax -2.02374 -1.1908 3.28176
lowerneck -17.3145 -3.96262 -5.82121
upperneck 16.13 -5.11596 5.73806
head 8.15242 -2.23861 2.24667
rclavicle -2.83517e-014 4.05521e-014
rhumerus -33.9639 -3.86193 -84.6249
rradius 46.1964
rwrist -0.820366
rhand -14.867 -11.7796
rfingers 7.12502
rthumb 11.293 -41.4556
lclavicle -2.83517e-014 4.05521e-014
lhumerus -30.7328 -2.46993 94.857
lradius 32.1042
lwrist -18.3677
lhand -12.0657 9.64652
lfingers 7.12502
lthumb 13.9936 39.1555
rfemur -34.4886 -4.0877 26.3363
rtibia 35.738
rfoot 358.891 -4.90172
rtoes 22.2953
lfemur 4.82054 -5.15887 -13.9031
ltibia 35.2505
lfoot 558.022 165.54
ltoes -11.2072
359
root -20.7892 17.527 4.08997 770.335 -84.9112 -764.773
lowerback -2.62607 -1.18914 1.75707
upperback -3.6585 -1.66035 3.83062
thorax -2.2243 -0.871412 2.94874
lowerneck -17.4703 -3.90278 -5.6387
upperneck 16.1714 -5.02297 5.49457
head 8.17615 -2.20365 2.14516
rclavicle 9.83984e-015 -1.51076e-014
rhumerus -32.1531 -2.90598 -85.6336
rradius 46.7526
rwrist -1.1448
rhand -14.9615 -11.8636
rfingers 7.12502
rthumb 11.2019 -41.5445
lclavicle 9.83984e-015 -1.51076e-014
lhumerus -31.6755 -0.0799511 93.2644
lradius 30.4612
lwrist -20.78
lhand -12.011 9.37455
lfingers 7.12502
lthumb 14.0464 38.8799
rfemur -33.3723 -3.36383 27.3865
rtibia 35.3318
rfoot 357.993 -4.73318
rtoes 23.0099
lfemur 2.80727 -4.41269 -12.776
ltibia 39.0651
lfoot 561.547 165.291
ltoes -9.17498
360
root -20.9528 17.5226 4.0759 781.252 -84.8489 -776.01
lowerback -2.2089 -0.719529 2.55545
upperback -3.55077 -1.02658 3.92294
thorax -2.38451 -0.574055 2.60691
lowerneck -17.601 -3.83853 -5.46696
upperneck 16.0842 -4.92656 5.3062
head 8.15443 -2.1629 2.0645
rclavicle 7.72775e-015 -3.81667e-014
rhumerus -30.2439 -1.86122 -86.5705
rradius 47.3471
rwrist -1.38151
rhand -15.0502 -11.9332
rfingers 7.12502
rthumb 11.1164 -41.6188
lclavicle 7.72775e-015 -3.81667e-014
lhumerus -32.6261 2.44712 91.4341
lradius 29.0176
lwrist -23.0004
lhand -12.0128 9.08698
lfingers 7.12502
lthumb 14.0447 38.5924
rfemur -32.252 -2.5706 28.3615
rtibia 35.0275
rfoot 357.217 -4.63559
rtoes 23.3221
lfemur 0.607427 -3.77172 -11.7355
ltibia 43.313
lfoot 564.066 164.685
ltoes -7.7899
361
root -21.1101 17.5177 4.06176 790.477 -84.5366 -785.607
lowerback -1.75362 -0.307652 3.36093
upperback -3.39095 -0.462606 4.02981
thorax -2.49726 -0.311944 2.26987
lowerneck -17.6684 -3.77047 -5.32324
upperneck 15.8887 -4.8265 5.17079
head 8.0877 -2.11825 2.00733
rclavicle -7.92654e-015 1.59028e-014
rhumerus -28.2629 -0.707809 -87.4089
rradius 47.9779
rwrist -1.56212
rhand -15.1326 -11.9905
rfingers 7.12502
rthumb 11.0369 -41.6803
lclavicle -7.92654e-015 1.59028e-014
lhumerus -33.6236 5.01727 89.4262
lradius 27.7983
lwrist -24.8599
lhand -12.0786 8.79027
lfingers 7.12502
lthumb 13.9812 38.3001
rfemur -31.1052 -1.73994 29.3144
rtibia 34.772
rfoot 356.504 -4.62846
rtoes 23.2861
lfemur -1.78348 -3.2493 -10.7241
ltibia 47.9711
lfoot 565.346 163.985
ltoes -6.86817
362
root -21.2618 17.5122 4.04706 797.329 -83.9804 -792.875
lowerback -1.27298 0.0458608 4.22074
upperback -3.19007 0.0297064 4.16639
thorax -2.56941 -0.0867352 1.92868
lowerneck -17.7112 -3.70429 -5.20891
upperneck 15.6354 -4.73269 5.09647
head 8.00052 -2.07294 1.97489
rclavicle 2.98177e-015 -2.22639e-014
rhumerus -26.2299 0.519945 -88.1196
rradius 48.6608
rwrist -1.74562
rhand -15.1994 -12.0966
rfingers 7.12502
rthumb 10.9725 -41.7899
lclavicle 2.98177e-015 -2.22639e-014
lhumerus -34.663 7.46554 87.326
lradius 26.8006
lwrist -26.2146
lhand -12.2289 8.44588
lfingers 7.12502
lthumb 13.8364 37.9657
rfemur -29.9123 -0.905521 30.3278
rtibia 34.5156
rfoot 355.817 -4.7496
rtoes 23.09
lfemur -4.36509 -2.81846 -9.64771
ltibia 52.96
lfoot 565.402 163.48
ltoes -6.56883
363
root -21.4088 17.5063 4.03167 801.784 -83.2142 -797.779
lowerback -0.776593 0.341616 5.16033
upperback -2.96404 0.451087 4.34324
thorax -2.61388 0.101403 1.58213
lowerneck -17.7345 -3.6508 -5.1125
upperneck 15.3758 -4.65831 5.04803
head 7.9104 -2.03594 1.95182
rclavicle -8.94531e-016 3.02153e-014
rhumerus -24.1728 1.79982 -88.6812
rradius 49.3821
rwrist -1.95714
rhand -15.2863 -12.2029
rfingers 7.12502
rthumb 10.8886 -41.9006
lclavicle -8.94531e-016 3.02153e-014
lhumerus -35.7413 9.64729 85.2234
lradius 26.0218
lwrist -27.0197
lhand -12.3498 8.09361
lfingers 7.12502
lthumb 13.7199 37.6213
rfemur -28.6635 -0.115817 31.4532
rtibia 34.2195
rfoot 355.158 -5.00574
rtoes 22.8674
lfemur -7.11803 -2.43718 -8.44941
ltibia 58.144
lfoot 564.472 163.293
ltoes -6.81094
364
root -21.5508 17.5016 4.01533 804.198 -82.2821 -800.663
lowerback -0.262209 0.583635 6.17984
upperback -2.73453 0.808914 4.55735
thorax -2.65595 0.25569 1.22888
lowerneck -17.7446 -3.61766 -5.03654
upperneck 15.1457 -4.61548 5.03011
head 7.83105 -2.01261 1.9385
rclavicle 1.46604e-015 -1.03368e-014
rhumerus -22.1183 3.07232 -89.08
rradius 50.131
rwrist -2.19717
rhand -15.3722 -12.3034
rfingers 7.12502
rthumb 10.8058 -42.0054
lclavicle 1.46604e-015 -1.03368e-014
lhumerus -36.8225 11.4505 83.1992
lradius 25.4223
lwrist -27.3554
lhand -12.4166 7.77218
lfingers 7.12502
lthumb 13.6555 37.3042
rfemur -27.3759 0.590642 32.702
rtibia 33.8649
rfoot 354.55 -5.39493
rtoes 22.7103
lfemur -10.0368 -2.07062 -7.11469
ltibia 63.3952
lfoot 562.87 163.31
ltoes -7.0381
365
root -21.6881 17.5001 3.99851 805.17 -81.2659 -802.118
lowerback 0.27203 0.783012 7.2357
upperback -2.51231 1.12032 4.7872
thorax -2.70909 0.385364 0.871987
lowerneck -17.739 -3.61524 -4.97079
upperneck 14.9514 -4.61876 5.03018
head 7.76429 -2.01052 1.92733
rclavicle 2.11209e-015 6.59965e-014
rhumerus -20.0776 4.293 -89.3121
rradius 50.8893
rwrist -2.45999
rhand -15.485 -12.3962
rfingers 7.12502
rthumb 10.6969 -42.1039
lclavicle 2.11209e-015 6.59965e-014
lhumerus -37.8553 12.8225 81.3091
lradius 24.9612
lwrist -27.379
lhand -12.3873 7.49817
lfingers 7.12502
lthumb 13.6837 37.0283
rfemur -26.0709 1.17281 34.0125
rtibia 33.4615
rfoot 354.001 -5.86058
rtoes 22.6388
lfemur -13.098 -1.70352 -5.71725
ltibia 68.5872
lfoot 560.911 163.306
ltoes -6.82364
